<?xml version="1.0" encoding="UTF-8"?>
<svg version="1.1" xmlns="http://www.w3.org/2000/svg" width="460" height="430">
<path d="M0 0 C3.3760656 2.69265151 5.55930074 5.33788469 7.625 9.125 C7.625 9.785 7.625 10.445 7.625 11.125 C9.60536486 10.14825896 11.58426133 9.16854018 13.5625 8.1875 C14.66464844 7.64222656 15.76679688 7.09695312 16.90234375 6.53515625 C19.47294414 5.37795022 19.47294414 5.37795022 20.625 4.125 C26.82812402 3.16464273 30.95353069 6.17907143 36.0625 9.25 C36.96323242 9.77899902 37.86396484 10.30799805 38.79199219 10.85302734 C41.74547943 12.59541245 44.68558224 14.35899593 47.625 16.125 C49.21368896 17.07052734 49.21368896 17.07052734 50.83447266 18.03515625 C54.01978565 19.93168902 57.19889048 21.83809929 60.375 23.75 C61.38103271 24.35344238 62.38706543 24.95688477 63.42358398 25.57861328 C64.35114502 26.14306152 65.27870605 26.70750977 66.234375 27.2890625 C67.05905273 27.78873535 67.88373047 28.2884082 68.73339844 28.80322266 C70.625 30.125 70.625 30.125 71.625 32.125 C71.72333885 34.41889285 71.75578385 36.71571988 71.7578125 39.01171875 C71.75876923 39.70578323 71.75972595 40.39984772 71.76071167 41.11494446 C71.76139356 42.59363902 71.75953867 44.07233655 71.75537109 45.55102539 C71.75012778 47.75869989 71.75525995 49.9661609 71.76171875 52.17382812 C71.76566375 61.5325495 71.37330287 70.795078 70.625 80.125 C71.71071289 80.53165894 71.71071289 80.53165894 72.81835938 80.9465332 C75.56705787 82.10067096 77.98489646 83.43543129 80.53125 84.98046875 C81.44003906 85.51994141 82.34882813 86.05941406 83.28515625 86.61523438 C85.18356557 87.74984077 87.07680528 88.8931405 88.96484375 90.04492188 C89.87363281 90.58052734 90.78242188 91.11613281 91.71875 91.66796875 C92.95141602 92.4108313 92.95141602 92.4108313 94.20898438 93.16870117 C97.25140762 94.37294246 98.53455762 94.14791767 101.625 93.125 C103.68955278 92.13292183 105.71849552 91.06527399 107.71875 89.94921875 C108.29884827 89.62780914 108.87894653 89.30639954 109.47662354 88.97525024 C111.36318484 87.92761036 113.24411085 86.87028418 115.125 85.8125 C116.42974988 85.08505843 117.73476516 84.35809268 119.04003906 83.6315918 C128.45598869 78.3812971 137.83017776 73.05702881 147.171875 67.67578125 C147.90728516 67.2576416 148.64269531 66.83950195 149.40039062 66.40869141 C150.95423467 65.51205927 152.49371873 64.59028132 154.02148438 63.64990234 C154.80330078 63.18148926 155.58511719 62.71307617 156.390625 62.23046875 C157.43138184 61.58887817 157.43138184 61.58887817 158.49316406 60.93432617 C161.34646419 59.8511047 162.72931746 60.19138967 165.625 61.125 C167.65444027 62.17051655 169.64289602 63.29730635 171.59765625 64.4765625 C172.16141464 64.81368256 172.72517303 65.15080261 173.30601501 65.49813843 C175.10403725 66.57528718 176.89585078 67.6622907 178.6875 68.75 C179.86351891 69.45771862 181.03994822 70.16475576 182.21679688 70.87109375 C183.08611343 71.39337555 183.08611343 71.39337555 183.97299194 71.9262085 C185.13700575 72.62498629 186.30141284 73.32310938 187.46621704 74.02056885 C190.33523279 75.7401701 193.19267796 77.47512065 196.03076172 79.24511719 C197.09182129 79.89383789 198.15288086 80.54255859 199.24609375 81.2109375 C200.18767334 81.79665527 201.12925293 82.38237305 202.09936523 82.98583984 C204.49742043 84.32203027 204.49742043 84.32203027 206.79711914 83.90087891 C208.80148529 83.09231624 208.80148529 83.09231624 211.25 81.625 C217.19815731 78.98137453 223.0342794 78.36439108 229.3125 80.25 C236.81001649 83.21198182 240.92630339 86.77020548 244.6796875 93.94140625 C246.98674775 99.27052477 247.64702913 104.84228687 245.90625 110.43359375 C243.82934088 115.39975144 241.43226187 119.31773813 237.625 123.125 C235.8318335 123.8531189 235.8318335 123.8531189 234.00244141 124.59594727 C232.08432913 125.56541646 232.08432913 125.56541646 230.625 127.125 C229.60661573 130.8285666 229.79034591 134.46005282 229.8984375 138.27734375 C229.89800446 139.36962784 229.89757141 140.46191193 229.89712524 141.58729553 C229.898466 145.08010978 229.9452104 148.57014352 230 152.0625 C230.04423424 155.55099504 230.07805767 159.03820815 230.08145142 162.5269928 C230.08439053 164.69744484 230.11116335 166.86802546 230.16439819 169.03782654 C230.18625396 176.35395024 230.18625396 176.35395024 227.44091797 180.12548828 C224.71573798 182.06056927 222.04743705 183.80843257 219.109375 185.40234375 C218.03494141 185.99152588 216.96050781 186.58070801 215.85351562 187.18774414 C214.70560547 187.80641357 213.55769531 188.42508301 212.375 189.0625 C211.1733071 189.71836594 209.97214264 190.37520092 208.77148438 191.03295898 C206.91680584 192.04868008 205.06173441 193.06361723 203.20483398 194.07527161 C196.81364686 197.55733043 190.46854002 201.11937943 184.125 204.6875 C181.2266823 206.31633576 178.32804456 207.94352367 175.41796875 209.55126953 C173.48326619 210.64140001 171.57011171 211.77033315 169.67578125 212.92919922 C168.72058594 213.49783691 167.76539063 214.06647461 166.78125 214.65234375 C165.93369141 215.1743335 165.08613281 215.69632324 164.21289062 216.23413086 C160.65535053 217.45879725 159.01783978 216.6317077 155.625 215.125 C153.80037776 214.19192611 152.00218662 213.2057759 150.23046875 212.17578125 C149.20397217 211.5818457 148.17747559 210.98791016 147.11987305 210.37597656 C146.02843994 209.7362793 144.93700684 209.09658203 143.8125 208.4375 C142.11250854 207.4489502 142.11250854 207.4489502 140.37817383 206.44042969 C129.21279624 199.93677253 118.13299556 193.28866928 107.07495117 186.60449219 C106.26646729 186.11625977 105.4579834 185.62802734 104.625 185.125 C103.41710815 184.2572998 103.41710815 184.2572998 102.18481445 183.37207031 C98.81227373 181.7290624 97.19841152 182.09968837 93.625 183.125 C90.73777513 184.42088865 90.73777513 184.42088865 87.88671875 186.109375 C86.28473633 187.01816406 86.28473633 187.01816406 84.65039062 187.9453125 C83.54888672 188.58210937 82.44738281 189.21890625 81.3125 189.875 C79.12891685 191.11981026 76.94532328 192.36460224 74.76171875 193.609375 C73.72184814 194.21749023 72.68197754 194.82560547 71.6105957 195.45214844 C68.625 197.125 68.625 197.125 65.86401367 198.36816406 C61.46417889 200.27235305 61.46417889 200.27235305 58.83813477 204.04003906 C58.49002491 206.53286661 58.47855819 208.85905171 58.5625 211.375 C58.57805487 213.33592811 58.59228909 215.29686698 58.60546875 217.2578125 C58.62399902 218.3396582 58.6425293 219.42150391 58.66162109 220.53613281 C58.62797545 223.83340638 58.41453355 227.04235841 58.11883545 230.32243347 C56.23367586 245.48529533 56.23367586 245.48529533 60.18798828 259.57568359 C64.44906901 263.62698165 69.55735977 265.80093773 74.95703125 267.97216797 C79.26211699 269.83239993 83.038845 272.41677348 86.9375 275 C88.51466647 276.00096667 90.09413715 276.99831109 91.67578125 277.9921875 C97.92543693 281.94448932 104.16143581 285.9182244 110.39770508 289.89160156 C117.40570585 294.35479066 124.4272127 298.79620732 131.4609375 303.21875 C135.55566798 305.79799304 139.61208346 308.42009106 143.625 311.125 C144.35203125 310.25617188 145.0790625 309.38734375 145.828125 308.4921875 C154.97930916 297.87804325 164.49772134 291.34661232 178.7578125 289.91015625 C191.39653234 289.34390536 202.53236966 294.30672578 211.8125 302.625 C220.623633 311.88385317 223.97643126 323.30540418 223.8359375 335.78125 C223.20500235 345.78274055 218.74483553 354.35466412 212.25 361.875 C202.14501454 370.53641611 192.2949639 375.56692005 178.7265625 375.40234375 C169.29292807 374.55878198 160.94179247 371.06180804 153.625 365.125 C152.99980469 364.62355469 152.37460937 364.12210937 151.73046875 363.60546875 C143.65655845 356.37588894 139.15117147 345.52952273 138.48046875 334.81640625 C138.39401331 330.15567224 138.92692979 325.73784797 139.625 321.125 C138.59246094 320.50496094 137.55992187 319.88492187 136.49609375 319.24609375 C127.59464088 313.86882203 118.81638832 308.33600664 110.125 302.625 C102.70762157 297.7532127 95.24781315 292.99191809 87.6418457 288.42041016 C83.08483289 285.66790696 78.59221874 282.82747791 74.12890625 279.92578125 C73.56576721 279.56071976 73.00262817 279.19565826 72.42242432 278.8195343 C69.62109514 277.00304976 66.82552905 275.17911613 64.03759766 273.34204102 C63.01843262 272.68002686 61.99926758 272.0180127 60.94921875 271.3359375 C60.04260498 270.74087402 59.13599121 270.14581055 58.2019043 269.53271484 C55.52716258 268.07155324 53.66443913 267.31792284 50.625 267.125 C48.23193062 267.9527777 48.23193062 267.9527777 45.9140625 269.4140625 C45.00978516 269.93774414 44.10550781 270.46142578 43.17382812 271.00097656 C42.20896484 271.5781543 41.24410156 272.15533203 40.25 272.75 C38.19010816 273.94531938 36.1302122 275.14063167 34.0703125 276.3359375 C31.92148736 277.59829872 29.77305284 278.86132508 27.625 280.125 C23.4676919 282.55820708 19.29934884 284.97117653 15.125 287.375 C14.17705566 287.93525879 13.22911133 288.49551758 12.25244141 289.07275391 C2.89322087 294.46526371 2.89322087 294.46526371 -2.375 294.125 C-6.14876691 292.5328676 -9.53525032 290.42218123 -13 288.25 C-15.11796989 286.96528867 -17.23648563 285.68147694 -19.35546875 284.3984375 C-20.48001465 283.70975586 -21.60456055 283.02107422 -22.76318359 282.31152344 C-26.59729271 279.97650122 -30.47657141 277.72261559 -34.36328125 275.4765625 C-35.358508 274.90018539 -35.358508 274.90018539 -36.37384033 274.31216431 C-39.00629362 272.78761055 -41.63884821 271.26326401 -44.2744751 269.74420166 C-46.11175333 268.6834754 -47.94495525 267.61601987 -49.77734375 266.546875 C-50.83429443 265.93424805 -51.89124512 265.32162109 -52.98022461 264.69042969 C-55.375 263.125 -55.375 263.125 -56.375 261.125 C-56.48694551 259.11439141 -56.53431014 257.10007066 -56.55200195 255.08642578 C-56.56483719 253.81815948 -56.57767242 252.54989319 -56.59089661 251.24319458 C-56.59906334 249.85223785 -56.6065072 248.46127671 -56.61328125 247.0703125 C-56.61939454 246.02142664 -56.61939454 246.02142664 -56.62563133 244.95135117 C-56.64648921 241.25093633 -56.66079263 237.55055856 -56.67016602 233.85009766 C-56.68123581 230.02766699 -56.7156421 226.20581764 -56.75533772 222.38359261 C-56.78147785 219.44447749 -56.78985542 216.50550151 -56.79344749 213.56628036 C-56.79831953 212.15725652 -56.80995126 210.74823913 -56.82848549 209.33932877 C-56.85281876 207.36714939 -56.84949785 205.39468757 -56.8449707 203.42236328 C-56.85377007 201.73930588 -56.85377007 201.73930588 -56.86274719 200.02224731 C-56.26315917 196.4606588 -55.15132737 195.35460401 -52.375 193.125 C-50.72849118 192.06627712 -49.04040015 191.07050427 -47.32421875 190.12890625 C-46.32600098 189.5762207 -45.3277832 189.02353516 -44.29931641 188.45410156 C-43.23116699 187.87112305 -42.16301758 187.28814453 -41.0625 186.6875 C-38.81353816 185.44448781 -36.56484677 184.20098619 -34.31640625 182.95703125 C-33.16930176 182.32490723 -32.02219727 181.6927832 -30.84033203 181.04150391 C-25.37495899 178.01887615 -19.9365648 174.94905343 -14.5 171.875 C-13.52635498 171.32658447 -12.55270996 170.77816895 -11.54956055 170.21313477 C-10.64890869 169.70451904 -9.74825684 169.19590332 -8.8203125 168.671875 C-8.03156738 168.22682617 -7.24282227 167.78177734 -6.43017578 167.32324219 C-4.70759654 166.31891587 -3.03409047 165.23106031 -1.375 164.125 C5.30501992 164.17599252 9.93907784 167.31242111 15.5 170.75 C16.91901611 171.59461792 16.91901611 171.59461792 18.36669922 172.45629883 C23.74826601 175.67479011 29.00434061 179.02912431 34.203125 182.53515625 C35.29512207 183.24784668 36.38711914 183.96053711 37.51220703 184.69482422 C39.63358747 186.08231132 41.73004511 187.50885197 43.79638672 188.97705078 C46.78041439 190.90129352 49.17493015 192.27230587 52.625 193.125 C57.21091267 192.01340942 60.71902625 189.70920624 64.625 187.125 C66.48181987 186.07829783 68.34495605 185.04270546 70.21484375 184.01953125 C71.99933422 182.99555817 73.78190553 181.96823297 75.5625 180.9375 C76.46806641 180.41736328 77.37363281 179.89722656 78.30664062 179.36132812 C81.77410355 177.36645415 85.22918852 175.37051635 88.62890625 173.26171875 C90.625 172.125 90.625 172.125 92.625 172.125 C92.62277939 171.34683426 92.62055878 170.56866852 92.61827087 169.766922 C92.59821452 162.42512394 92.5829986 155.08333921 92.57318783 147.74152088 C92.56797443 143.96723573 92.56090483 140.19297327 92.54956055 136.41870117 C92.5386768 132.7747494 92.53271153 129.13081942 92.53012276 125.48685265 C92.5282784 124.09822942 92.52467684 122.70960735 92.51926994 121.32099342 C92.51198679 119.37261752 92.51159132 117.42421959 92.51147461 115.47583008 C92.509254 114.3677449 92.50703339 113.25965973 92.50474548 112.11799622 C92.61646118 109.33752142 92.99121582 106.82916282 93.625 104.125 C92.53928711 103.71834106 92.53928711 103.71834106 91.43164062 103.3034668 C88.68294213 102.14932904 86.26510354 100.81456871 83.71875 99.26953125 C82.80996094 98.73005859 81.90117187 98.19058594 80.96484375 97.63476562 C79.06643443 96.50015923 77.17319472 95.3568595 75.28515625 94.20507812 C74.37636719 93.66947266 73.46757812 93.13386719 72.53125 92.58203125 C71.29858398 91.8391687 71.29858398 91.8391687 70.04101562 91.08129883 C67.03645315 89.89204345 65.67498309 90.1400442 62.625 91.125 C60.24951225 92.18108124 60.24951225 92.18108124 57.88671875 93.53125 C56.54371704 94.27048706 56.54371704 94.27048706 55.17358398 95.0246582 C54.22942627 95.552771 53.28526855 96.08088379 52.3125 96.625 C50.85275757 97.42780396 50.85275757 97.42780396 49.36352539 98.24682617 C44.80687813 100.76033522 40.27820714 103.31145964 35.796875 105.95703125 C35.07540283 106.37855469 34.35393066 106.80007812 33.6105957 107.234375 C32.27847076 108.01691305 30.95355589 108.81190216 29.63745117 109.62109375 C25.26293191 112.18770019 25.26293191 112.18770019 22.24536133 111.89111328 C19.33855852 111.0412533 17.08745727 109.86328042 14.484375 108.31640625 C13.50364014 107.73866455 12.52290527 107.16092285 11.51245117 106.56567383 C10.47709229 105.94587646 9.4417334 105.3260791 8.375 104.6875 C7.31192627 104.05803467 6.24885254 103.42856934 5.15356445 102.7800293 C2.99817468 101.50366864 0.84427211 100.22479309 -1.30810547 98.94335938 C-4.07224222 97.30450485 -6.84633912 95.68542294 -9.62890625 94.078125 C-10.4065332 93.62751709 -11.18416016 93.17690918 -11.98535156 92.71264648 C-13.41667887 91.88384132 -14.8495423 91.05768137 -16.28417969 90.23461914 C-22.49964611 86.60998262 -22.49964611 86.60998262 -24.375 84.125 C-24.71557617 81.39770508 -24.71557617 81.39770508 -24.66796875 78.14453125 C-24.65830078 76.98115234 -24.64863281 75.81777344 -24.63867188 74.61914062 C-24.61353516 73.40419922 -24.58839844 72.18925781 -24.5625 70.9375 C-24.54219727 69.09768555 -24.54219727 69.09768555 -24.52148438 67.22070312 C-24.48608741 64.18836336 -24.4367076 61.15690004 -24.375 58.125 C-24.97538086 58.00745361 -25.57576172 57.88990723 -26.19433594 57.76879883 C-35.33102158 55.87994702 -42.17190692 52.01421763 -47.71875 44.2421875 C-53.44415281 35.48764716 -54.70294278 26.93571801 -52.9453125 16.59765625 C-50.41004593 7.69292367 -44.35733914 1.00817857 -36.546875 -3.72265625 C-24.4067798 -10.16389381 -10.84262119 -7.58783804 0 0 Z M13.82421875 18.8984375 C10.19711611 22.57063734 10.41075914 26.61489293 10.0234375 31.58203125 C9.17901982 39.09072572 5.27415527 45.45679217 -0.1953125 50.5859375 C-4.50251841 53.62722626 -9.43583065 55.36506609 -14.375 57.125 C-15.63304034 64.37518325 -16.68911867 72.0078225 -14.375 79.125 C-9.97622461 84.48644465 -3.27340138 87.02672904 2.91845703 89.79736328 C5.57854548 91.10221273 7.85069008 92.57167706 10.24609375 94.30859375 C17.46609488 99.7441137 17.46609488 99.7441137 26.0546875 100.60546875 C29.09271307 99.13649403 31.79370141 97.48313148 34.54345703 95.53271484 C37.88248598 93.27458196 41.41714379 91.37682345 44.93652344 89.41650391 C47.71497454 87.86689238 50.47630868 86.29154762 53.23046875 84.69921875 C54.00543701 84.25151123 54.78040527 83.80380371 55.57885742 83.3425293 C59.18340358 81.54485948 59.18340358 81.54485948 61.09101868 78.29914856 C61.13228378 77.56081284 61.17354889 76.82247711 61.21606445 76.06176758 C61.26813553 75.22362015 61.3202066 74.38547272 61.37385559 73.52192688 C61.41161606 72.61363632 61.44937653 71.70534576 61.48828125 70.76953125 C61.52994919 69.83453293 61.57161713 68.89953461 61.61454773 67.936203 C61.69430331 65.95348438 61.76516494 63.97039129 61.82788086 61.98706055 C61.93658064 58.96307633 62.11495317 55.94819681 62.29492188 52.92773438 C63.04879923 43.1463726 63.04879923 43.1463726 59.65380859 34.36108398 C57.04573625 32.50435036 54.59497709 31.30332499 51.625 30.125 C50.23873198 29.33054433 48.8624879 28.51817481 47.5 27.68359375 C46.21130003 26.97116947 44.9196213 26.26410648 43.625 25.5625 C38.1861422 22.57317964 32.85891027 19.48743512 27.640625 16.12109375 C22.50998319 13.58560216 18.23347573 16.18207772 13.82421875 18.8984375 Z M149 77.5 C147.81628934 78.20802801 146.63029675 78.91225391 145.44213867 79.61279297 C143.0120394 81.0510062 140.5943298 82.50729248 138.18408203 83.97851562 C132.85277861 87.21711895 127.38800966 90.2181596 121.9375 93.25 C119.27628034 94.74319611 116.62379804 96.23955077 114.00244141 97.80175781 C111.625 99.125 111.625 99.125 109.24365234 100.00292969 C106.65431186 101.09335974 105.34039531 101.88139881 103.625 104.125 C102.6322011 108.89964625 102.66640628 113.56618748 102.66864014 118.4284668 C102.62174693 121.32600814 102.43638524 124.19041098 102.21923828 127.08007812 C101.38372447 138.23782023 100.94483444 149.38192041 101.2421875 160.5703125 C101.23913101 161.60210632 101.23607452 162.63390015 101.23292542 163.69696045 C101.49418019 169.66686681 102.61986905 172.7823765 106.92944336 177.0246582 C110.40474447 179.89569122 113.3883115 181.85510712 117.82421875 182.91015625 C125.37110179 185.13943413 131.54641844 188.91512555 138.19717407 193.01019287 C141.25907167 194.88006806 144.36611194 196.67151008 147.46875 198.47265625 C150.70413278 200.35938001 153.72091277 202.19846656 156.69726562 204.47827148 C159.45510587 206.45849484 159.45510587 206.45849484 162.15527344 205.56152344 C163.37778809 204.85044434 163.37778809 204.85044434 164.625 204.125 C165.49930664 203.66899414 166.37361328 203.21298828 167.27441406 202.74316406 C168.69318848 201.94990723 168.69318848 201.94990723 170.140625 201.140625 C171.21570313 200.54145264 172.29078125 199.94228027 173.3984375 199.32495117 C174.54570312 198.68146729 175.69296875 198.0379834 176.875 197.375 C178.07017878 196.70719877 179.26549318 196.03964021 180.4609375 195.37231445 C182.93651537 193.98967919 185.41104035 192.60518525 187.88476562 191.21923828 C190.95010582 189.50209305 194.01779981 187.78921437 197.08660889 186.07827759 C199.93345781 184.49097186 202.77920252 182.90168982 205.625 181.3125 C206.6862207 180.72049805 207.74744141 180.12849609 208.84082031 179.51855469 C209.82147461 178.96973633 210.80212891 178.42091797 211.8125 177.85546875 C212.67230469 177.37489014 213.53210938 176.89431152 214.41796875 176.39916992 C216.19359672 175.37405904 217.91905196 174.26229869 219.625 173.125 C220.06161626 171.11162635 220.06161626 171.11162635 219.96557617 168.76708984 C219.96534958 167.86630707 219.96512299 166.96552429 219.96488953 166.03744507 C219.94940567 165.06344757 219.93392181 164.08945007 219.91796875 163.0859375 C219.91372391 162.08994537 219.90947906 161.09395325 219.90510559 160.06777954 C219.8882768 156.87824775 219.85061676 153.68934167 219.8125 150.5 C219.7974586 148.34115494 219.78376925 146.1823 219.77148438 144.0234375 C219.73835967 138.72374388 219.68811896 133.42441663 219.625 128.125 C218.94228027 127.86307861 218.25956055 127.60115723 217.55615234 127.33129883 C216.65848145 126.98091553 215.76081055 126.63053223 214.8359375 126.26953125 C213.94696777 125.92510986 213.05799805 125.58068848 212.14208984 125.22583008 C205.85084086 122.47440024 202.59365978 118.17226992 199.625 112.125 C197.32224657 106.17622031 198.7300463 99.23459204 199.625 93.125 C195.66055131 90.79412393 191.69526726 88.46467743 187.72924805 86.13647461 C186.38397305 85.3464895 185.03891553 84.55613392 183.6940918 83.76538086 C183.0441626 83.38325439 182.3942334 83.00112793 181.72460938 82.60742188 C181.08177002 82.22880005 180.43893066 81.85017822 179.77661133 81.46008301 C178.4929055 80.70937262 177.20512117 79.96559243 175.91333008 79.22888184 C173.20244828 77.67907583 170.61392477 76.11664394 168.11914062 74.234375 C160.88300225 68.98010892 155.79246528 73.21927463 149 77.5 Z M-4.3828125 177.2578125 C-5.59868042 177.96309082 -5.59868042 177.96309082 -6.83911133 178.68261719 C-7.71720459 179.19985352 -8.59529785 179.71708984 -9.5 180.25 C-11.38083823 181.3423041 -13.26238121 182.43339535 -15.14453125 183.5234375 C-16.14564941 184.10448242 -17.14676758 184.68552734 -18.17822266 185.28417969 C-23.81915071 188.53243061 -29.50404779 191.70196097 -35.1875 194.875 C-37.19508675 195.99654911 -39.20265402 197.11813309 -41.21020508 198.23974609 C-42.93179982 199.20150378 -44.65339691 200.16325726 -46.375 201.125 C-46.70549472 208.81014082 -46.9326018 216.49344466 -47.08911133 224.18408203 C-47.15436358 226.79773411 -47.24299258 229.41091378 -47.35571289 232.02294922 C-48.56690696 245.38392566 -48.56690696 245.38392566 -45.30078125 257.97467041 C-42.49415757 260.8392138 -39.03438393 262.15298864 -35.29318237 263.40637207 C-31.90403716 264.67608159 -28.93610357 266.65990219 -25.8671875 268.5546875 C-24.60377325 269.2980411 -23.33813706 270.03763111 -22.0703125 270.7734375 C-21.44286133 271.13920898 -20.81541016 271.50498047 -20.16894531 271.88183594 C-19.53569336 272.25083008 -18.90244141 272.61982422 -18.25 273 C-16.29926164 274.1376088 -14.34879286 275.27567161 -12.3989563 276.41482544 C-10.65704932 277.43239104 -8.91424573 278.44842134 -7.17138672 279.46435547 C-5.20655352 280.63117888 -3.27638446 281.85741036 -1.375 283.125 C2.75961381 282.79463029 5.84348391 281.10637967 9.421875 279.09765625 C10.54722656 278.46923828 11.67257813 277.84082031 12.83203125 277.19335938 C14.01303006 276.52475589 15.19401965 275.8561361 16.375 275.1875 C17.49777344 274.56037109 18.62054688 273.93324219 19.77734375 273.28710938 C21.52186223 272.30840494 23.26632456 271.32851608 24.98226929 270.30053711 C28.33080974 268.30969446 31.58480642 266.71913445 35.24072266 265.36132812 C40.09735768 263.38062878 44.4066115 261.39898259 47.625 257.125 C50.3177382 249.50276101 49.90108126 241.28395538 49.62158203 233.31152344 C49.49988569 229.49641631 49.53910526 225.70677155 49.59765625 221.890625 C50.12616234 209.56935178 50.12616234 209.56935178 45.13037109 198.94580078 C42.31565487 197.19433528 39.65558383 195.93328966 36.52606201 194.85369873 C33.15366364 193.56102001 30.18266483 191.58340892 27.1171875 189.6953125 C25.85368433 188.95211004 24.58804931 188.21252007 23.3203125 187.4765625 C22.69286133 187.11079102 22.06541016 186.74501953 21.41894531 186.36816406 C20.46906738 185.81467285 20.46906738 185.81467285 19.5 185.25 C17.54926164 184.1123912 15.59879286 182.97432839 13.6489563 181.83517456 C11.90704932 180.81760896 10.16424573 179.80157866 8.42138672 178.78564453 C6.45655352 177.61882112 4.52638446 176.39258964 2.625 175.125 C-0.66281233 175.125 -1.61476629 175.63368116 -4.3828125 177.2578125 Z " fill="#9CA3AF" transform="translate(146.375,36.875)"/>
<path d="M0 0 C0.66 0.33 1.32 0.66 2 1 C-0.97 3.97 -3.94 6.94 -7 10 C-7.66 9.67 -8.32 9.34 -9 9 C-8.06725891 7.87105124 -7.12859878 6.74699124 -6.1875 5.625 C-5.66542969 4.99851562 -5.14335938 4.37203125 -4.60546875 3.7265625 C-3 2 -3 2 0 0 Z " fill="#6B7280" transform="translate(107,35)"/>
</svg>
