<svg width="544" height="93" viewBox="0 0 544 93" fill="none" xmlns="http://www.w3.org/2000/svg">
<path d="M1.72932 0.0176323C0.910627 -0.109016 0.14428 0.451994 0.0176323 1.27068C-0.109016 2.08937 0.451994 2.85572 1.27068 2.98237L1.5 1.5L1.72932 0.0176323ZM527.7 82.9011C527.024 87.2674 530.016 91.3546 534.383 92.0301C538.749 92.7055 542.836 89.7135 543.512 85.3471C544.187 80.9808 541.195 76.8936 536.829 76.2181C532.462 75.5427 528.375 78.5347 527.7 82.9011ZM1.5 1.5L1.27068 2.98237L535.376 85.6065L535.606 84.1241L535.835 82.6417L1.72932 0.0176323L1.5 1.5Z" fill="white"/>
</svg>
