<svg width="544" height="126" viewBox="0 0 544 126" fill="none" xmlns="http://www.w3.org/2000/svg">
<path d="M542.32 2.9663C543.13 2.79045 543.644 1.99162 543.468 1.18207C543.292 0.372525 542.493 -0.141182 541.684 0.0346742L542.002 1.50049L542.32 2.9663ZM15.8197 115.802C14.8818 111.485 10.6214 108.745 6.30377 109.683C1.98619 110.621 -0.753584 114.881 0.184318 119.199C1.12222 123.516 5.38264 126.256 9.70022 125.318C14.0178 124.38 16.7576 120.12 15.8197 115.802ZM542.002 1.50049L541.684 0.0346742L7.68358 116.035L8.00199 117.5L8.32041 118.966L542.32 2.9663L542.002 1.50049Z" fill="white"/>
</svg>
