<svg width="544" height="124" viewBox="0 0 544 124" fill="none" xmlns="http://www.w3.org/2000/svg">
<path d="M541.689 123.468C542.499 123.641 543.296 123.125 543.469 122.315C543.642 121.504 543.125 120.707 542.315 120.535L542.002 122.001L541.689 123.468ZM15.8257 9.67169C16.7481 5.35078 13.9931 1.1002 9.6722 0.177762C5.35129 -0.744679 1.10071 2.01032 0.178268 6.33124C-0.744174 10.6521 2.01083 14.9027 6.33174 15.8252C10.6527 16.7476 14.9032 13.9926 15.8257 9.67169ZM542.002 122.001L542.315 120.535L8.31514 6.53452L8.00197 8.00147L7.6888 9.46841L541.689 123.468L542.002 122.001Z" fill="white"/>
</svg>
